<?xml version="1.0" encoding="utf-8"?>
<!-- Generator: Adobe Illustrator 16.0.0, SVG Export Plug-In . SVG Version: 6.00 Build 0)  -->
<!DOCTYPE svg PUBLIC "-//W3C//DTD SVG 1.1//EN" "http://www.w3.org/Graphics/SVG/1.1/DTD/svg11.dtd">
<svg version="1.1" id="Layer_1" xmlns="http://www.w3.org/2000/svg" xmlns:xlink="http://www.w3.org/1999/xlink" x="0px" y="0px"
	 width="32px" height="32px" viewBox="0 0 32 32" enable-background="new 0 0 32 32" xml:space="preserve">
<rect fill="#BC2013" width="16" height="32"/>
<rect x="16" fill="#0071BC" width="16" height="32"/>
<g>
	<g>
		<path fill="#FFFFFF" d="M15.978,6.507c-5.433,0.032-9.612,4.222-9.633,9.66c-0.021,5.075,4.35,9.309,9.627,9.326
			c5.461,0.018,9.719-4.194,9.683-9.579C25.62,10.631,21.345,6.476,15.978,6.507z M16,21.166c-2.735-0.05-4.764-2.312-4.749-5.295
			c0.014-2.967,2.123-5.175,4.886-5.118c2.609,0.056,4.693,2.354,4.71,5.196C20.865,18.838,18.657,21.216,16,21.166z"/>
	</g>
</g>
</svg>
