<?xml version="1.0" encoding="utf-8"?>
<!-- Generator: Adobe Illustrator 16.0.0, SVG Export Plug-In . SVG Version: 6.00 Build 0)  -->
<!DOCTYPE svg PUBLIC "-//W3C//DTD SVG 1.1//EN" "http://www.w3.org/Graphics/SVG/1.1/DTD/svg11.dtd">
<svg version="1.1" id="Layer_1" xmlns="http://www.w3.org/2000/svg" xmlns:xlink="http://www.w3.org/1999/xlink" x="0px" y="0px"
	 width="570px" height="270px" viewBox="0 0 570 270" enable-background="new 0 0 570 270" xml:space="preserve">
<g>
	<path fill="#FFFFFF" d="M285.094,262.275c-84.11,0-168.218,0.004-252.328-0.006c-19.898-0.004-21.266-1.261-21.324-21.235
		C11.239,170.059,11.098,99.084,11,28.11C10.974,9.603,12.807,7.77,32.06,7.772c169.512,0.033,339.024-0.124,508.538,0
		C556.979,7.785,559,10.195,559,26.837c-0.003,72.265-0.025,144.529-0.104,216.792c-0.017,16.29-2.234,18.463-18.885,18.475
		c-84.972,0.043-169.945,0.021-254.917,0.021C285.094,262.174,285.094,262.227,285.094,262.275z"/>
</g>
<rect x="8" y="55.5" fill="none" width="554" height="199"/>
<text transform="matrix(1 0 0 1 34.5786 204.5977)" stroke="#000000" stroke-miterlimit="10" font-family="'MyriadPro-Bold'" font-size="210">NEXT</text>
</svg>
