<?xml version="1.0" encoding="utf-8"?>
<!-- Generator: Adobe Illustrator 16.0.0, SVG Export Plug-In . SVG Version: 6.00 Build 0)  -->
<!DOCTYPE svg PUBLIC "-//W3C//DTD SVG 1.1//EN" "http://www.w3.org/Graphics/SVG/1.1/DTD/svg11.dtd">
<svg version="1.1" id="Layer_1" xmlns="http://www.w3.org/2000/svg" xmlns:xlink="http://www.w3.org/1999/xlink" x="0px" y="0px"
	 width="570px" height="270px" viewBox="0 0 570 270" enable-background="new 0 0 570 270" xml:space="preserve">
<g>
	<path fill-rule="evenodd" clip-rule="evenodd" fill="#0071BC" d="M539.115,7.522c-170.03,0.077-340.088-0.079-510.144,0
		c-16.335,0.025-18.198,2.264-18.12,19.184c0.311,72.391,0.596,144.784,0.957,217.174c0.078,17.152,0.868,18.299,18.139,18.326
		c84.806,0.023,172.053,0,254.053,0v0.287c85,0,169.984,0.025,254.795-0.027c17.551,0,19.312-1.615,19.392-19.262
		c0.311-71.951,0.713-143.924,0.947-215.9C559.208,9.031,557.751,7.522,539.115,7.522z M186,206.369
		c-12,0-22.695,0.859-33.605-0.494c-3.821-0.469-8.14-5.805-10.57-9.865c-11.425-19.236-22.407-38.785-36.703-57.891
		c0,14.783,0.026,29.596-0.077,44.381c-0.207,27.904,3.12,23.609-24.202,23.949C76.189,206.5,71,206.057,66,205.799V61.744
		c10,0,22.083-0.729,32.215,0.392c3.646,0.389,7.717,4.607,9.891,8.198C120.332,90.48,132,110.969,147,130.777V62h39V206.369z
		 M291.667,210.846c-42.621,0.209-76.045-32.822-76.199-74.941c-0.128-39.903,28.409-75.279,76.199-76.166
		c42.186-0.806,75.4,33.397,75.453,75.463C367.145,177.734,334.317,210.639,291.667,210.846z M476.217,96.261
		C472.389,96.312,467,96.286,463,96.286v110.005c-12,0-26.57-0.547-39.17-0.547c-0.812,0,0.022-7.34-0.003-11.322
		c-0.182-28.166-0.062-56.357,0.947-84.52c0.408-11.089-3.599-13.825-14.042-13.9c-31.254-0.158-27.415,6.411-27.155-30.003
		c0-0.859,0.345-0.998,0.784-3.998h117.427c0.597,3,1.418,2.201,1.471,2.958C505.532,95.646,505.658,96.027,476.217,96.261z"/>
	<path fill-rule="evenodd" clip-rule="evenodd" fill="#0071BC" d="M326.777,136.997c0.682,22.937-14.455,40.917-35.218,41.823
		c-20.035,0.877-36.931-17.127-37.487-39.938c-0.555-22.762,14.76-40.745,35.451-41.622
		C309.678,96.404,326.092,113.91,326.777,136.997z"/>
</g>
</svg>
