<?xml version="1.0" encoding="utf-8"?>
<!-- Generator: Adobe Illustrator 16.0.0, SVG Export Plug-In . SVG Version: 6.00 Build 0)  -->
<!DOCTYPE svg PUBLIC "-//W3C//DTD SVG 1.1//EN" "http://www.w3.org/Graphics/SVG/1.1/DTD/svg11.dtd">
<svg version="1.1" id="Layer_1" xmlns="http://www.w3.org/2000/svg" xmlns:xlink="http://www.w3.org/1999/xlink" x="0px" y="0px"
	 width="570px" height="270px" viewBox="0 0 570 270" enable-background="new 0 0 570 270" xml:space="preserve">
<g>
	<path fill-rule="evenodd" clip-rule="evenodd" fill="#BC2013" d="M285.094,262.275c-84.11,0-168.218,0.004-252.328-0.006
		c-19.898-0.003-21.266-1.26-21.324-21.235C11.239,170.058,11.098,99.084,11,28.11C10.974,9.603,12.807,7.77,32.06,7.772
		c169.512,0.033,339.024-0.124,508.538,0C556.979,7.785,559,10.195,559,26.837c-0.003,72.265-0.025,144.529-0.104,216.792
		c-0.016,16.29-2.234,18.463-18.884,18.475c-84.972,0.042-169.945,0.02-254.918,0.02
		C285.094,262.174,285.094,262.226,285.094,262.275z M368.715,134.619c-0.275-41.339-33.722-73.854-75.721-73.609
		c-42.512,0.249-75.212,33.037-75.379,75.588c-0.159,39.711,34.04,72.84,75.328,72.973
		C335.679,209.707,368.997,176.752,368.715,134.619z M106.344,204.742c0-19.503,0-37.337,0-55.506c14.992,0,28.569,0,43.779,0
		c0,18.835,0,37.042,0,55.053c13.421,0,25.166,0,36.164,0c0-47.729,0-94.291,0-140.405c-12.929,0-24.294,0-36.773,0
		c0,17.365,0,33.556,0,51.44c-10.936,0-32.444,0-42.222,0c-1.248,0-0.947-1.543-0.947-12.846c0-12.748,0-25.535,0-38.68
		c-13.711,0-26.035,0-37.886,0c0,47.684,0,94.248,0,140.943C81.131,204.742,92.633,204.742,106.344,204.742z M501.876,63.516
		c-40.188,0-78.811,0-117.943,0c0,10.861,0,20.885,0,32.945c13.872,0,26.892,0,41.226,0c0,37.467,0,72.898,0,108.109
		c12.874,0,24.325,0,37.112,0c0-36.305,0-71.781,0-109.029c14.01,0,26.69,0,39.605,0C501.876,83.973,501.876,74.218,501.876,63.516z
		"/>
	<path fill-rule="evenodd" clip-rule="evenodd" fill="#BC2013" d="M256.008,134.279c0.112-23.218,16.609-40.495,38.232-40.042
		c20.415,0.434,36.724,18.414,36.86,40.651c0.136,22.606-17.146,41.211-37.928,40.826
		C271.771,175.321,255.894,157.618,256.008,134.279z"/>
</g>
</svg>
