<?xml version="1.0" encoding="utf-8"?>
<!-- Generator: Adobe Illustrator 16.0.0, SVG Export Plug-In . SVG Version: 6.00 Build 0)  -->
<!DOCTYPE svg PUBLIC "-//W3C//DTD SVG 1.1//EN" "http://www.w3.org/Graphics/SVG/1.1/DTD/svg11.dtd">
<svg version="1.1" id="Layer_1" xmlns="http://www.w3.org/2000/svg" xmlns:xlink="http://www.w3.org/1999/xlink" x="0px" y="0px"
	 width="1400px" height="270px" viewBox="0 0 1400 270" enable-background="new 0 0 1400 270" xml:space="preserve">
<g>
	<g>
		<path fill-rule="evenodd" clip-rule="evenodd" d="M670.539,182.05c-26.416-0.194-46.33-20.089-46.361-46.316
			c-0.031-26.713,20.439-46.243,48.051-45.841c26.092,0.383,45.256,19.513,45.48,45.397
			C717.943,162.383,697.902,182.252,670.539,182.05z M671.498,161.803c13.893-0.27,24.852-12.062,24.613-26.48
			c-0.236-14.381-11.641-25.687-25.586-25.363c-14.166,0.329-24.855,11.792-24.574,26.352
			C646.232,150.826,657.5,162.072,671.498,161.803z"/>
		<path fill-rule="evenodd" clip-rule="evenodd" d="M734.104,92.445c13.998-0.518,27.959,7.147,41.666-5.677
			c0,9.919,0,16.299,0,22.712c-20.463,7.341-21.531,8.865-21.551,30.923c-0.012,12.346-0.002,24.688-0.002,37.875
			c-7.143,0-13.104,0-20.113,0C734.104,150.373,734.104,122.429,734.104,92.445z"/>
	</g>
	<g>
		<path fill-rule="evenodd" clip-rule="evenodd" fill="#BC2013" d="M279.908,261.686c-84.109,0-168.219,0.004-252.329-0.006
			c-19.898-0.004-21.267-1.26-21.324-21.236C6.052,169.467,5.912,98.495,5.814,27.52C5.788,9.014,7.621,7.18,26.874,7.182
			c169.513,0.033,339.025-0.123,508.539,0c16.381,0.014,18.402,2.424,18.402,19.064c-0.004,72.266-0.025,144.529-0.105,216.792
			c-0.016,16.289-2.234,18.463-18.883,18.475c-84.973,0.041-169.945,0.02-254.918,0.02
			C279.908,261.584,279.908,261.635,279.908,261.686z M363.529,134.029c-0.275-41.339-33.723-73.853-75.721-73.609
			c-42.512,0.25-75.213,33.037-75.379,75.587c-0.158,39.711,34.039,72.84,75.328,72.973
			C330.492,209.117,363.811,176.162,363.529,134.029z M101.158,204.152c0-19.504,0-37.338,0-55.506c14.992,0,28.569,0,43.779,0
			c0,18.834,0,37.041,0,55.053c13.42,0,25.167,0,36.165,0c0-47.73,0-94.291,0-140.404c-12.93,0-24.295,0-36.774,0
			c0,17.365,0,33.555,0,51.439c-10.936,0-32.444,0-42.223,0c-1.248,0-0.947-1.543-0.947-12.846c0-12.748,0-25.535,0-38.68
			c-13.711,0-26.034,0-37.885,0c0,47.684,0,94.248,0,140.943C75.945,204.152,87.447,204.152,101.158,204.152z M496.689,62.926
			c-40.188,0-78.811,0-117.943,0c0,10.861,0,20.885,0,32.945c13.873,0,26.893,0,41.227,0c0,37.466,0,72.898,0,108.109
			c12.873,0,24.324,0,37.111,0c0-36.305,0-71.781,0-109.029c14.01,0,26.691,0,39.605,0
			C496.689,83.383,496.689,73.629,496.689,62.926z"/>
		<path fill-rule="evenodd" clip-rule="evenodd" fill="#BC2013" d="M250.822,133.689c0.111-23.218,16.609-40.494,38.232-40.041
			c20.414,0.434,36.723,18.414,36.859,40.65c0.137,22.605-17.145,41.211-37.928,40.826
			C266.586,174.73,250.709,157.027,250.822,133.689z"/>
	</g>
	<g>
		<path fill-rule="evenodd" clip-rule="evenodd" fill="#0071BC" d="M1374.254,6.933c-170.031,0.077-340.088-0.079-510.145,0
			c-16.334,0.025-18.197,2.265-18.119,19.185c0.311,72.391,0.596,144.783,0.957,217.174c0.078,17.152,0.274,18.299,17.544,18.326
			c84.807,0.023,171.46,0,253.46,0v0.287c85,0,170.577,0.025,255.388-0.027c17.551,0,19.61-1.615,19.69-19.262
			c0.311-71.951,0.859-143.924,1.094-215.9C1394.197,8.441,1392.889,6.933,1374.254,6.933z M1019.951,205.779
			c-12,0-22.103,0.859-33.013-0.494c-3.82-0.469-7.841-5.805-10.272-9.865c-11.424-19.236-22.26-38.785-36.555-57.891
			c0,14.783,0.099,29.596-0.005,44.381c-0.207,27.904,2.565,23.609-24.757,23.949c-4.652,0.051-10.398-0.393-15.398-0.65V61.154
			c10,0,22.677-0.729,32.808,0.392c3.646,0.39,7.421,4.607,9.595,8.198c12.225,20.146,23.598,40.635,38.598,60.443V61.41h39V205.779
			z M1126.805,210.256c-42.621,0.209-76.045-32.822-76.199-74.941c-0.127-39.902,28.408-75.278,76.199-76.165
			c42.186-0.806,75.4,33.397,75.453,75.463C1202.283,177.145,1169.455,210.049,1126.805,210.256z M1310.761,95.671
			c-3.828,0.051-9.81,0.025-13.81,0.025v110.005c-12,0-25.978-0.547-38.577-0.547c-0.812,0,0.321-7.34,0.296-11.322
			c-0.182-28.166,0.084-56.357,1.094-84.52c0.408-11.09-3.524-13.825-13.968-13.9c-31.254-0.158-27.376,6.41-27.116-30.004
			c0-0.859,0.381-0.998,0.82-3.998h117.426c0.598,3,1.123,2.201,1.176,2.958C1340.375,95.056,1340.202,95.438,1310.761,95.671z"/>
		<path fill-rule="evenodd" clip-rule="evenodd" fill="#0071BC" d="M1161.975,136.407c0.682,22.937-14.455,40.917-35.217,41.823
			c-20.035,0.877-36.932-17.127-37.488-39.938c-0.555-22.762,14.76-40.744,35.451-41.622
			C1144.875,95.814,1161.289,113.32,1161.975,136.407z"/>
	</g>
</g>
</svg>
